<?xml version="1.0" encoding="utf-8"?>
<!-- Generator: Adobe Illustrator 24.0.2, SVG Export Plug-In . SVG Version: 6.00 Build 0)  -->
<svg version="1.1" id="Layer_1" xmlns="http://www.w3.org/2000/svg" xmlns:xlink="http://www.w3.org/1999/xlink" x="0px" y="0px"
	 viewBox="0 0 480 480" style="enable-background:new 0 0 480 480;" xml:space="preserve">
<style type="text/css">
	.st0{fill:#006060;}
</style>
<path class="st0" d="M64,480h352c13.6,0,24-10.4,24-24V48c0-13.6-10.4-24-24-24h-96c0-13.6-10.4-24-24-24H184c-13.6,0-24,10.4-24,24
	H64c-13.6,0-24,10.4-24,24v408C40,469.6,50.4,480,64,480z M176,24c0-4.8,3.2-8,8-8h112c4.8,0,8,3.2,8,8v40c0,4.8-3.2,8-8,8H184
	c-4.8,0-8-3.2-8-8V24z M56,48c0-4.8,3.2-8,8-8h96v24c0,13.6,10.4,24,24,24h112c10.4,0,19.2-6.4,22.4-16H392v304h-56v56H88V72h56V56
	H72v392h275.2l60.8-60.8V56h-88V40h96c4.8,0,8,3.2,8,8v408c0,4.8-3.2,8-8,8H64c-4.8,0-8-3.2-8-8V48z M380.8,392L352,420.8V392H380.8
	z"/>
<path class="st0" d="M208,40h64v16h-64V40z"/>
<path class="st0" d="M112,264h256V136H112V264z M128,152h224v96H128V152z"/>
<path class="st0" d="M184,104h112v16H184V104z"/>
<path class="st0" d="M112,280h56v16h-56V280z"/>
<path class="st0" d="M184,280h184v16H184V280z"/>
<path class="st0" d="M112,312h104v16H112V312z"/>
<path class="st0" d="M232,312h136v16H232V312z"/>
<path class="st0" d="M112,344h152v16H112V344z"/>
<path class="st0" d="M280,344h88v16h-88V344z"/>
<path class="st0" d="M112,376h200v16H112V376z"/>
</svg>
