<?xml version="1.0" encoding="utf-8"?>
<!-- Generator: Adobe Illustrator 23.0.3, SVG Export Plug-In . SVG Version: 6.00 Build 0)  -->
<svg version="1.1" id="Layer_1" xmlns="http://www.w3.org/2000/svg" xmlns:xlink="http://www.w3.org/1999/xlink" x="0px" y="0px"
	 viewBox="0 0 194.9 194.9" style="enable-background:new 0 0 194.9 194.9;" xml:space="preserve">
<style type="text/css">
	.st0{fill:#89023E;}
</style>
<g>
	<path class="st0" d="M68.7,178.3c-20.5,0-37.1-16.6-37.1-37.1c0-3,2.3-5.3,5.3-5.3c3,0,5.3,2.3,5.3,5.3c0,14.6,11.9,26.5,26.5,26.5
		s26.5-11.9,26.5-26.5V21.9c0-3,2.3-5.3,5.3-5.3s5.3,2.3,5.3,5.3v64.2c6.3-6,14.7-9.5,23.5-9.5c18.7,0,33.9,15.3,33.9,34
		c0,18.7-15.2,33.9-33.9,33.9c-8.8,0-17.2-3.5-23.5-9.5v6.2C105.8,161.7,89.2,178.3,68.7,178.3z M129.3,87.1
		c-12.9,0-23.4,10.5-23.4,23.4c0,12.9,10.5,23.4,23.4,23.4c12.8,0,23.3-10.5,23.4-23.4C152.7,97.6,142.2,87.1,129.3,87.1z"/>
	<path class="st0" d="M129.3,79.6c-10.8,0-20.9,5.7-26.5,15V21.9c0-1.3-1-2.3-2.3-2.3s-2.3,1-2.3,2.3v119.3
		c0,16.3-13.2,29.5-29.5,29.5s-29.5-13.2-29.5-29.5l0,0c0-1.3-1-2.3-2.3-2.3l0,0c-1.3,0-2.3,1-2.3,2.3l0,0
		c0,18.8,15.3,34.1,34.1,34.1s34.1-15.3,34.1-34.1v-14.7c5.6,9.3,15.7,15,26.5,15c17.1,0,30.9-13.9,30.9-30.9
		C160.2,93.5,146.4,79.6,129.3,79.6z M129.3,136.9L129.3,136.9c-14.6,0-26.4-11.8-26.4-26.4s11.8-26.4,26.4-26.4
		s26.4,11.8,26.4,26.4C155.6,125.1,143.8,136.9,129.3,136.9z"/>
</g>
</svg>
