<?xml version="1.0" encoding="utf-8"?>
<!-- Generator: Adobe Illustrator 23.0.3, SVG Export Plug-In . SVG Version: 6.00 Build 0)  -->
<svg version="1.1" id="Layer_1" xmlns="http://www.w3.org/2000/svg" xmlns:xlink="http://www.w3.org/1999/xlink" x="0px" y="0px"
	 viewBox="0 0 194.9 194.9" style="enable-background:new 0 0 194.9 194.9;" xml:space="preserve">
<style type="text/css">
	.st0{display:none;fill:#89023E;}
	.st1{fill:#E1E5F2;}
</style>
<g id="Symbol_1_1" transform="translate(-863 -51)">
	<circle class="st0" cx="960.4" cy="148.4" r="94.7"/>
	<path id="Subtraction_1" class="st1" d="M959.4,245.9c-13,0-25.9-2.6-37.9-7.7c-5.8-2.5-11.3-5.5-16.5-9c-5.2-3.5-10-7.5-14.4-11.9
		c-4.4-4.4-8.4-9.2-11.9-14.4c-3.5-5.2-6.5-10.8-9-16.5c-5.1-12-7.7-24.9-7.7-37.9c0-13,2.6-25.9,7.7-37.9c2.5-5.8,5.5-11.3,9-16.5
		c3.5-5.2,7.5-10,11.9-14.4c4.4-4.4,9.2-8.4,14.4-11.9c5.2-3.5,10.8-6.5,16.5-9c12-5.1,24.9-7.7,37.9-7.7c13,0,25.9,2.6,37.9,7.7
		c5.8,2.5,11.3,5.5,16.5,9c5.2,3.5,10,7.5,14.4,11.9c4.4,4.4,8.4,9.2,11.9,14.4c3.5,5.2,6.5,10.8,9,16.5c5.1,12,7.7,24.9,7.7,37.9
		c0,13-2.6,25.9-7.7,37.9c-2.5,5.8-5.5,11.3-9,16.5c-3.5,5.2-7.5,10-11.9,14.4c-4.4,4.4-9.2,8.4-14.4,11.9c-5.2,3.5-10.8,6.5-16.5,9
		C985.3,243.3,972.5,245.9,959.4,245.9z M906.5,184.5c-1.1,0-2,0.9-2,2v0c0,16.5,13.4,29.9,29.9,29.9c16.5,0,29.9-13.4,29.9-29.9
		v-12.9c4.9,8.2,13.7,13.1,23.3,13.2c15,0,27.1-12.2,27.2-27.2c0-15-12.2-27.1-27.2-27.2c-9.5,0-18.3,5-23.3,13.2V81.8
		c0-1.1-0.9-2-2-2c-1.1,0-2,0.9-2,2v104.7c0,14.3-11.6,25.9-25.9,25.9c-14.3,0-25.9-11.6-25.9-25.9v0
		C908.6,185.4,907.7,184.5,906.5,184.5C906.6,184.5,906.5,184.5,906.5,184.5z M987.6,182.8c-12.8,0-23.1-10.4-23.1-23.1
		c0-12.8,10.4-23.1,23.1-23.1c12.8,0,23.1,10.4,23.1,23.2C1010.8,172.4,1000.4,182.8,987.6,182.8L987.6,182.8z"/>
</g>
</svg>
