<svg xmlns="http://www.w3.org/2000/svg" viewBox="0 0 194.853 194.853">
  <defs>
    <style>
      .cls-1 {
        fill: #37bac2;
      }
    </style>
  </defs>
  <g id="Symbol_1_1" data-name="Symbol 1 – 1" transform="translate(-863 -51)">
    <path id="Subtraction_1" data-name="Subtraction 1" class="cls-1" d="M-5614.574-973.147A96.819,96.819,0,0,1-5652.5-980.8a97.437,97.437,0,0,1-16.549-8.983,98.124,98.124,0,0,1-14.418-11.9,98.137,98.137,0,0,1-11.9-14.419,97.421,97.421,0,0,1-8.982-16.549,96.816,96.816,0,0,1-7.656-37.923,96.816,96.816,0,0,1,7.656-37.923,97.451,97.451,0,0,1,8.982-16.549,98.155,98.155,0,0,1,11.9-14.419,98.1,98.1,0,0,1,14.418-11.9,97.464,97.464,0,0,1,16.549-8.983,96.821,96.821,0,0,1,37.923-7.656,96.824,96.824,0,0,1,37.923,7.656,97.47,97.47,0,0,1,16.549,8.983,98.1,98.1,0,0,1,14.419,11.9,98.143,98.143,0,0,1,11.9,14.419,97.451,97.451,0,0,1,8.982,16.549,96.825,96.825,0,0,1,7.656,37.923,96.825,96.825,0,0,1-7.656,37.923,97.421,97.421,0,0,1-8.982,16.549,98.131,98.131,0,0,1-11.9,14.419,98.107,98.107,0,0,1-14.419,11.9,97.428,97.428,0,0,1-16.549,8.983A96.818,96.818,0,0,1-5614.574-973.147Zm-52.884-61.375a2.007,2.007,0,0,0-2,2v.02a29.945,29.945,0,0,0,29.911,29.91,29.945,29.945,0,0,0,29.911-29.91v-12.895a27.306,27.306,0,0,0,23.271,13.177,27.186,27.186,0,0,0,27.155-27.155,27.186,27.186,0,0,0-27.155-27.155,27.307,27.307,0,0,0-23.271,13.177v-63.83a2.006,2.006,0,0,0-2-2,2.006,2.006,0,0,0-2,2V-1032.5a25.933,25.933,0,0,1-25.9,25.9,25.932,25.932,0,0,1-25.9-25.9v-.02A2.006,2.006,0,0,0-5667.458-1034.522Zm81.088-1.7a23.172,23.172,0,0,1-23.146-23.147,23.172,23.172,0,0,1,23.146-23.147,23.177,23.177,0,0,1,23.147,23.154A23.17,23.17,0,0,1-5586.369-1036.224Z" transform="translate(6575 1219)"/>
  </g>
</svg>
