<svg id="Layer_1" data-name="Layer 1" xmlns="http://www.w3.org/2000/svg" viewBox="0 0 194.86 194.86"><defs><style>.cls-1{fill:#006060;}</style></defs><title>jblogo_teal</title><g id="Symbol_1_1" data-name="Symbol 1 1"><path id="Subtraction_1" data-name="Subtraction 1" class="cls-1" d="M97.43,194.85A97,97,0,0,1,43,178.22,98.08,98.08,0,0,1,16.63,151.9a97.71,97.71,0,0,1-9-16.55,97.83,97.83,0,0,1,0-75.85A97.81,97.81,0,0,1,59.5,7.65,97.38,97.38,0,0,1,166.31,28.54a97.5,97.5,0,0,1-31,158.66A96.7,96.7,0,0,1,97.43,194.85ZM44.54,133.48a2,2,0,0,0-2,2v0a29.91,29.91,0,0,0,59.82,0V122.6a27.16,27.16,0,1,0,0-27.95V30.82a2,2,0,0,0-4,0V135.5a25.9,25.9,0,0,1-51.8,0v0a2,2,0,0,0-2-2Zm81.09-1.7a23.15,23.15,0,1,1,23.15-23.14,23.18,23.18,0,0,1-23.15,23.14Z" transform="translate(0 0)"/></g></svg>